<?xml version="1.0" standalone="no"?>
<!DOCTYPE svg PUBLIC "-//W3C//DTD SVG 20010904//EN"
 "http://www.w3.org/TR/2001/REC-SVG-20010904/DTD/svg10.dtd">
<svg version="1.0" xmlns="http://www.w3.org/2000/svg"
 width="1024.000000pt" height="1024.000000pt" viewBox="0 0 1024.000000 1024.000000"
 preserveAspectRatio="xMidYMid meet">
<metadata>
Created by potrace 1.14, written by Peter Selinger 2001-2017
</metadata>
<g transform="translate(0.000000,1024.000000) scale(0.100000,-0.100000)"
fill="#000000" stroke="none">
<path d="M4977 8594 c-4 -4 -80 -11 -170 -15 -187 -9 -309 -22 -352 -38 -16
-6 -61 -16 -100 -22 -38 -6 -93 -14 -122 -19 -29 -4 -62 -15 -75 -24 -12 -9
-33 -16 -47 -16 -13 0 -32 -6 -40 -14 -16 -14 -128 -46 -162 -46 -11 0 -27 -9
-36 -20 -10 -11 -23 -20 -31 -20 -7 0 -30 -9 -50 -19 -20 -11 -62 -27 -92 -36
-30 -8 -61 -21 -70 -29 -8 -7 -36 -20 -62 -30 -25 -9 -52 -24 -58 -32 -7 -7
-20 -14 -30 -14 -10 0 -23 -7 -30 -15 -12 -15 -67 -45 -81 -45 -11 0 -79 -47
-93 -64 -6 -7 -23 -16 -37 -20 -14 -3 -45 -21 -70 -41 -24 -19 -49 -35 -54
-35 -6 0 -30 -19 -55 -41 -25 -23 -59 -48 -77 -55 -17 -7 -42 -27 -55 -43 -21
-27 -112 -101 -123 -101 -13 0 -315 -311 -353 -363 -24 -31 -52 -63 -63 -70
-11 -6 -27 -26 -35 -44 -9 -17 -33 -50 -55 -74 -21 -23 -39 -46 -39 -51 0 -5
-17 -32 -39 -61 -21 -29 -41 -61 -45 -72 -3 -11 -22 -37 -41 -58 -19 -21 -35
-45 -35 -54 0 -8 -23 -49 -50 -90 -28 -41 -50 -81 -50 -88 0 -8 -4 -17 -10
-20 -5 -3 -10 -13 -10 -22 0 -9 -8 -26 -18 -37 -10 -12 -24 -43 -30 -71 -7
-27 -22 -62 -32 -77 -11 -15 -20 -32 -20 -39 0 -6 -8 -26 -19 -43 -10 -17 -26
-62 -36 -101 -9 -38 -23 -79 -31 -90 -8 -10 -14 -26 -14 -35 0 -8 -7 -28 -16
-45 -17 -30 -21 -48 -44 -174 -6 -35 -16 -73 -22 -84 -11 -21 -21 -88 -37
-247 -5 -47 -17 -130 -26 -185 -14 -82 -16 -150 -13 -375 3 -182 9 -285 17
-304 6 -16 16 -76 21 -135 15 -167 26 -246 38 -268 10 -19 17 -50 41 -183 4
-25 15 -58 24 -75 9 -16 17 -37 17 -45 0 -9 6 -25 14 -35 8 -11 22 -52 31 -90
10 -38 35 -102 56 -142 21 -40 46 -98 54 -128 9 -30 21 -55 26 -55 5 0 12 -12
15 -27 8 -33 59 -129 82 -158 24 -28 42 -62 42 -78 0 -7 16 -31 36 -53 19 -21
41 -54 49 -72 8 -18 28 -50 45 -70 16 -20 30 -41 30 -47 0 -6 17 -29 38 -50
21 -22 45 -56 54 -75 10 -19 31 -44 47 -55 17 -11 31 -23 31 -27 0 -5 16 -25
35 -47 19 -21 35 -41 35 -45 0 -15 301 -303 360 -345 34 -25 69 -56 78 -69 9
-14 31 -31 50 -39 19 -8 51 -30 71 -49 19 -20 54 -44 77 -55 23 -10 44 -25 47
-33 3 -8 24 -20 47 -27 23 -7 47 -20 53 -28 15 -20 38 -34 103 -66 28 -13 57
-31 64 -40 7 -8 20 -15 30 -15 10 0 23 -6 29 -14 6 -7 33 -21 59 -31 26 -10
58 -26 71 -37 13 -10 34 -18 47 -18 12 0 26 -5 29 -10 3 -6 16 -10 28 -10 12
0 36 -9 52 -20 17 -11 37 -20 46 -20 9 0 24 -9 33 -19 10 -10 34 -22 54 -25
98 -15 119 -20 141 -37 13 -11 33 -19 45 -19 11 0 35 -7 51 -16 31 -16 81 -27
204 -45 41 -5 84 -15 95 -21 35 -19 429 -49 651 -50 239 0 605 30 668 57 20 8
52 15 72 15 41 0 108 14 190 41 33 10 67 19 76 19 9 0 27 8 40 19 13 10 40 21
59 24 74 12 118 24 141 40 13 10 31 17 40 17 9 0 24 9 34 20 10 11 29 20 42
20 13 0 31 4 41 9 45 23 130 60 152 67 14 4 36 15 49 25 13 11 30 19 37 19 7
0 17 6 21 14 4 7 33 25 63 40 69 32 91 47 107 67 6 8 30 21 53 29 23 7 46 22
51 32 5 10 14 18 19 18 14 0 130 80 130 90 0 4 17 16 38 25 20 10 64 45 97 78
33 32 72 66 88 73 33 18 284 267 311 309 24 38 50 68 99 114 21 20 45 50 52
68 7 17 23 36 34 43 12 6 21 17 21 25 0 8 6 18 14 22 8 4 24 27 36 51 12 23
28 46 34 50 7 4 18 23 26 42 8 19 28 53 46 75 17 22 41 61 52 86 12 25 28 52
37 59 8 7 15 18 15 26 0 7 6 19 13 26 19 19 47 78 47 98 0 10 6 23 14 29 8 7
25 45 37 84 12 40 28 79 35 88 8 8 14 22 14 31 0 8 9 23 19 32 10 10 21 34 24
54 9 68 28 131 43 143 8 6 14 21 14 33 0 12 7 32 16 44 15 22 26 69 43 188 5
34 14 71 21 83 12 23 25 117 41 306 5 61 13 142 19 180 12 90 12 360 0 450 -6
39 -14 122 -19 185 -16 181 -29 278 -43 302 -7 13 -15 48 -19 78 -13 102 -28
170 -43 192 -9 12 -16 31 -16 42 0 11 -7 27 -15 36 -13 15 -24 52 -42 145 -3
17 -14 41 -24 54 -11 13 -19 29 -19 36 0 7 -7 18 -15 25 -8 7 -17 28 -21 49
-4 20 -10 41 -14 46 -4 6 -11 24 -14 42 -4 17 -14 37 -22 44 -8 6 -14 17 -14
23 0 19 -56 123 -82 153 -8 10 -24 38 -36 63 -29 59 -44 82 -63 97 -8 6 -21
30 -29 52 -7 22 -18 42 -25 45 -7 2 -22 23 -34 46 -22 43 -30 53 -72 99 -14
15 -31 41 -37 57 -7 16 -26 38 -43 49 -16 11 -39 35 -50 53 -11 17 -24 32 -28
32 -4 0 -15 15 -26 32 -23 39 -267 285 -310 312 -38 24 -67 50 -118 104 -22
23 -45 42 -52 42 -6 0 -39 21 -73 48 -93 72 -143 106 -186 123 -21 9 -44 22
-50 30 -15 18 -40 34 -103 65 -29 14 -55 30 -58 35 -4 5 -21 16 -38 24 -18 8
-39 19 -47 24 -17 10 -130 62 -173 80 -15 6 -38 11 -51 11 -13 0 -31 9 -41 20
-10 11 -26 20 -35 20 -9 0 -27 9 -40 20 -13 11 -37 20 -56 20 -18 0 -36 5 -39
10 -3 6 -21 10 -38 10 -18 0 -45 9 -62 20 -16 11 -39 20 -50 20 -11 0 -33 7
-50 16 -31 16 -81 27 -204 45 -41 5 -84 15 -95 21 -25 14 -125 25 -346 39
-264 16 -434 21 -443 13z m408 -374 c88 -12 189 -28 225 -37 64 -15 124 -26
230 -39 30 -3 73 -14 95 -24 55 -24 124 -48 225 -79 36 -11 90 -29 120 -40 30
-12 60 -21 67 -21 7 0 39 -18 70 -40 32 -22 66 -40 75 -40 21 0 129 -56 143
-74 6 -7 35 -25 65 -39 80 -39 132 -69 156 -92 11 -11 29 -26 40 -32 113 -74
159 -108 191 -142 21 -21 52 -46 70 -55 17 -8 41 -31 53 -50 11 -19 30 -38 40
-41 27 -8 105 -86 124 -122 8 -17 29 -36 46 -43 20 -8 36 -25 45 -48 8 -19 35
-52 60 -74 24 -22 50 -49 57 -62 33 -58 56 -93 98 -147 55 -71 91 -130 116
-186 10 -24 21 -43 25 -43 12 0 52 -70 70 -121 9 -25 33 -72 53 -103 20 -32
43 -83 51 -114 8 -30 19 -58 24 -62 6 -3 14 -23 20 -45 24 -102 70 -235 89
-258 5 -7 12 -34 16 -62 19 -154 24 -183 35 -203 7 -12 16 -61 22 -108 5 -48
15 -96 22 -108 17 -30 17 -662 0 -692 -7 -12 -17 -60 -22 -108 -6 -47 -15 -96
-22 -108 -7 -12 -16 -52 -21 -88 -4 -36 -11 -87 -14 -115 -4 -27 -15 -63 -25
-80 -11 -16 -19 -37 -19 -45 0 -8 -7 -28 -15 -44 -9 -16 -20 -47 -25 -68 -6
-21 -15 -56 -20 -79 -6 -23 -17 -48 -25 -56 -8 -8 -15 -22 -15 -31 0 -23 -23
-86 -37 -103 -18 -22 -83 -153 -83 -167 0 -13 -36 -69 -57 -87 -6 -5 -21 -32
-33 -60 -13 -27 -33 -64 -46 -81 -13 -17 -24 -36 -24 -42 0 -6 -8 -17 -17 -24
-18 -13 -28 -27 -61 -82 -9 -16 -27 -41 -39 -56 -13 -15 -23 -32 -23 -37 0 -6
-22 -30 -49 -54 -26 -24 -55 -58 -64 -76 -9 -17 -32 -41 -51 -53 -19 -11 -38
-30 -41 -40 -8 -26 -85 -104 -121 -123 -16 -9 -38 -29 -48 -45 -11 -17 -34
-38 -50 -47 -17 -10 -47 -34 -66 -54 -36 -36 -153 -121 -168 -121 -4 0 -26
-17 -47 -38 -22 -20 -59 -46 -82 -56 -24 -11 -43 -22 -43 -26 0 -7 -71 -40
-88 -40 -6 0 -16 -8 -21 -18 -10 -20 -128 -82 -153 -82 -9 0 -27 -9 -41 -20
-14 -11 -30 -20 -35 -20 -6 0 -17 -6 -25 -14 -15 -16 -158 -68 -252 -92 -33
-9 -78 -25 -100 -35 -22 -10 -47 -19 -55 -19 -9 0 -26 -7 -38 -16 -13 -9 -51
-20 -85 -25 -168 -23 -205 -30 -242 -43 -22 -8 -60 -15 -85 -16 -25 0 -72 -5
-105 -11 -188 -33 -427 -32 -620 1 -33 5 -77 10 -97 10 -21 0 -57 7 -82 15
-24 8 -78 20 -118 25 -164 22 -201 29 -217 44 -10 9 -29 16 -42 16 -14 0 -34
7 -46 15 -12 9 -41 20 -65 25 -83 17 -119 28 -141 43 -12 7 -47 20 -77 28 -30
8 -77 29 -105 47 -27 18 -62 36 -78 39 -15 3 -30 10 -33 14 -3 5 -11 9 -19 9
-14 0 -85 44 -95 59 -7 10 -70 41 -85 41 -7 0 -20 9 -29 19 -10 11 -32 25 -49
32 -18 7 -46 27 -64 44 -17 17 -52 41 -77 54 -25 12 -46 26 -46 29 0 4 -16 16
-36 27 -20 11 -50 36 -68 56 -17 21 -44 43 -59 50 -15 7 -37 28 -48 46 -12 18
-34 40 -49 48 -33 17 -117 101 -125 124 -3 9 -20 26 -39 39 -19 13 -41 38 -50
56 -8 18 -26 38 -40 46 -14 7 -44 40 -67 74 -23 34 -60 87 -81 119 -22 31 -43
57 -48 57 -4 0 -14 15 -21 33 -7 17 -20 37 -29 44 -9 6 -22 29 -28 51 -7 21
-21 47 -32 57 -11 10 -20 24 -20 32 0 7 -7 16 -15 19 -8 3 -19 23 -25 44 -5
20 -21 54 -35 74 -14 20 -25 43 -25 51 0 8 -5 17 -11 21 -15 9 -49 91 -49 118
0 13 -9 31 -20 41 -11 10 -20 28 -20 39 0 31 -27 113 -45 138 -8 13 -15 33
-15 46 0 13 -9 40 -19 60 -19 37 -41 135 -41 184 0 14 -9 45 -20 69 -11 24
-20 61 -20 82 0 20 -9 72 -21 114 -19 71 -20 105 -20 423 0 318 1 352 20 423
12 42 21 94 21 114 0 21 9 58 20 82 11 24 20 55 20 69 0 49 22 147 41 184 10
20 19 47 19 60 0 13 7 33 15 46 18 25 45 107 45 138 0 11 9 29 20 39 11 10 20
28 20 39 0 31 24 92 43 114 9 10 17 25 17 32 0 7 7 21 15 30 9 10 24 41 34 70
11 30 25 59 33 65 7 6 19 19 26 30 7 11 21 34 32 50 11 17 20 38 20 47 0 9 8
23 18 30 9 7 23 26 30 43 8 16 22 35 33 43 10 7 19 17 19 22 0 8 33 56 78 115
4 6 18 27 30 47 13 20 39 47 58 58 18 12 34 28 34 35 0 7 24 37 53 67 28 31
76 80 106 112 30 31 60 56 67 56 8 0 25 18 40 39 14 22 38 45 54 51 16 7 36
22 44 35 18 27 115 102 169 130 21 11 53 34 70 50 18 17 46 37 64 44 17 7 39
21 49 32 9 10 24 19 33 19 9 0 41 18 71 40 53 38 75 51 130 72 41 16 124 60
141 74 8 8 22 14 30 14 18 0 117 36 132 48 7 5 26 12 42 15 70 13 112 25 140
41 17 9 39 16 50 16 11 0 32 8 45 17 14 10 47 20 75 24 153 20 207 30 246 43
24 9 64 16 89 16 25 1 65 5 90 11 25 5 71 12 103 14 32 2 61 6 65 9 13 14 278
5 427 -14z"/>
<path d="M5113 7672 c-18 -9 -54 -28 -80 -42 -26 -13 -55 -29 -63 -35 -8 -6
-35 -20 -60 -30 -51 -22 -101 -54 -113 -72 -4 -7 -16 -13 -25 -13 -9 0 -26 -7
-36 -15 -11 -8 -28 -15 -37 -15 -10 0 -22 -6 -26 -12 -9 -15 -69 -58 -79 -58
-14 0 -94 -42 -94 -49 0 -4 -24 -15 -52 -26 -29 -10 -57 -24 -63 -31 -5 -7
-41 -29 -80 -49 -38 -20 -77 -43 -85 -50 -8 -7 -46 -30 -85 -50 -38 -20 -77
-43 -86 -51 -8 -8 -22 -14 -30 -14 -24 0 -129 -59 -154 -86 -5 -6 -30 -19 -55
-29 -51 -22 -101 -54 -113 -72 -4 -7 -18 -13 -30 -13 -12 -1 -40 -12 -62 -25
-22 -14 -56 -33 -75 -42 -56 -27 -130 -76 -130 -85 0 -4 -7 -8 -15 -8 -19 0
-87 -32 -100 -46 -5 -7 -27 -17 -48 -24 -20 -6 -60 -29 -87 -51 -27 -21 -54
-39 -59 -39 -18 0 -88 -36 -158 -83 l-73 -48 0 -1289 0 -1289 73 -48 c86 -57
133 -83 148 -83 6 0 33 -18 61 -39 27 -22 66 -45 86 -52 20 -6 46 -19 57 -29
11 -10 31 -21 45 -25 30 -9 120 -65 120 -75 0 -4 21 -15 48 -25 26 -10 52 -23
57 -29 6 -6 30 -20 55 -31 48 -20 98 -52 115 -71 6 -6 27 -17 48 -24 20 -6 60
-29 87 -51 27 -21 52 -39 56 -39 10 0 78 -32 94 -45 8 -6 35 -20 60 -30 25
-10 50 -23 55 -29 19 -20 70 -52 115 -71 25 -11 50 -26 55 -33 12 -14 39 -31
105 -63 25 -12 52 -25 60 -30 125 -69 168 -94 185 -109 11 -10 38 -23 60 -30
22 -7 46 -21 53 -32 7 -10 19 -18 27 -18 8 0 18 -7 22 -15 5 -8 28 -21 51 -29
24 -9 55 -25 69 -36 14 -11 31 -20 38 -20 6 0 40 -18 75 -41 l64 -41 30 18
c17 10 36 23 41 29 6 6 30 20 55 30 25 10 52 24 60 30 16 13 84 45 94 45 4 0
29 18 56 39 27 22 67 45 87 51 21 7 43 18 48 24 17 19 67 51 115 71 25 11 50
25 55 31 6 6 30 19 54 28 25 10 50 23 55 31 6 7 43 30 81 50 39 20 77 42 85
49 8 8 27 20 41 27 15 8 48 26 75 42 27 15 56 31 64 36 8 4 33 17 55 27 22 10
62 34 89 53 27 18 65 41 85 50 41 19 91 50 106 67 6 6 31 19 57 28 26 10 50
22 54 27 5 9 86 49 99 49 3 0 28 18 56 40 28 22 68 45 91 52 22 6 42 17 45 24
3 7 27 20 54 29 27 9 52 22 56 28 13 20 66 53 116 72 26 10 47 21 47 26 0 4
30 25 68 45 37 21 70 43 74 48 4 6 8 585 8 1286 0 701 -4 1280 -8 1286 -4 6
-37 28 -74 48 -38 21 -68 41 -68 46 0 4 -21 15 -47 25 -27 10 -55 24 -63 31
-8 7 -24 21 -35 31 -11 10 -40 27 -65 37 -25 11 -52 25 -60 32 -8 7 -32 19
-53 28 -22 9 -61 34 -89 56 -28 22 -57 40 -65 40 -8 0 -29 10 -46 23 -41 29
-94 57 -108 57 -6 0 -29 15 -52 33 -23 18 -60 41 -82 52 -22 10 -58 33 -80 50
-22 17 -60 39 -85 50 -25 10 -52 24 -60 31 -9 8 -37 23 -63 34 -26 12 -47 24
-47 28 0 8 -47 37 -110 67 -25 12 -51 29 -59 38 -7 10 -18 17 -24 17 -5 0 -15
6 -21 13 -6 7 -31 22 -56 33 -25 10 -60 29 -79 41 -19 13 -39 23 -46 23 -7 0
-24 11 -39 25 -15 14 -33 25 -40 25 -7 0 -21 9 -31 20 -9 10 -34 25 -54 31
-20 7 -54 27 -76 44 -45 37 -97 65 -118 65 -8 0 -17 6 -20 13 -3 8 -27 22 -54
31 -26 10 -52 24 -58 31 -13 15 -50 35 -67 35 -7 0 -27 -8 -45 -18z m72 -352
c3 -11 10 -20 15 -20 5 0 19 -22 31 -50 12 -27 24 -50 28 -50 7 0 81 -106 81
-116 0 -3 18 -27 40 -53 22 -26 40 -50 40 -54 0 -4 12 -26 27 -50 15 -23 36
-57 46 -76 10 -19 31 -47 47 -62 15 -16 38 -48 49 -73 12 -24 36 -59 54 -77
18 -19 41 -53 51 -76 11 -24 23 -43 27 -43 4 0 17 -19 27 -43 10 -23 35 -60
55 -82 20 -22 42 -53 48 -70 7 -16 22 -40 33 -53 24 -26 93 -134 130 -202 14
-25 43 -65 66 -90 33 -37 40 -51 38 -80 l-3 -35 -970 -2 c-533 -2 -976 1 -983
5 -10 7 -9 16 3 45 8 20 20 40 27 44 14 9 76 101 98 146 8 15 28 43 46 61 17
18 40 48 49 67 10 19 32 52 49 74 18 22 41 56 52 75 10 19 26 41 35 50 9 8 22
30 29 48 7 18 26 46 41 63 16 17 42 55 60 85 17 30 42 62 54 70 13 9 29 31 35
50 7 19 20 43 30 52 10 9 28 36 40 60 12 23 35 56 52 74 16 17 35 46 43 65 8
18 31 50 51 70 20 21 44 54 53 73 9 19 28 51 44 71 15 20 27 43 27 51 0 19 65
78 85 78 7 0 17 -9 20 -20z m-435 -146 c0 -18 -13 -39 -38 -63 -22 -20 -47
-52 -57 -71 -10 -19 -32 -53 -50 -75 -18 -22 -42 -59 -54 -82 -12 -24 -25 -43
-30 -43 -4 0 -13 -12 -20 -27 -18 -40 -63 -106 -83 -121 -10 -7 -18 -19 -18
-26 0 -7 -10 -24 -22 -37 -27 -29 -98 -131 -98 -141 0 -7 -69 -111 -79 -118
-4 -3 -26 -34 -48 -70 -23 -36 -46 -70 -52 -76 -5 -6 -18 -29 -29 -50 -11 -21
-32 -50 -47 -64 -15 -14 -36 -44 -47 -67 -24 -52 -64 -81 -87 -64 -9 6 -32 19
-51 27 -19 9 -39 22 -43 30 -4 8 -14 14 -21 14 -6 0 -27 11 -46 25 -18 13 -49
30 -69 36 -20 6 -40 17 -46 23 -11 13 -73 46 -87 46 -10 0 -68 39 -83 56 -5 7
-28 19 -50 29 -22 9 -47 21 -55 26 -8 5 -25 14 -37 21 -13 6 -25 19 -28 30 -4
10 -11 18 -16 18 -5 0 -9 5 -9 10 0 6 6 10 13 10 8 0 22 9 32 20 10 11 24 20
30 20 17 0 103 38 107 48 4 10 65 52 75 52 16 0 79 36 103 58 12 11 39 29 59
38 108 50 196 95 210 107 28 24 128 77 144 77 9 0 24 8 34 18 10 10 38 27 63
37 45 19 96 51 115 71 5 6 30 19 55 29 51 22 101 54 113 73 4 6 16 12 26 12
10 0 38 11 62 25 24 14 60 32 79 42 56 27 130 76 130 85 0 4 11 8 25 8 20 0
25 -5 25 -26z m950 -57 c25 -12 48 -27 53 -34 4 -6 30 -19 57 -28 28 -9 50
-21 50 -26 0 -5 15 -15 34 -23 18 -8 37 -19 40 -25 4 -6 27 -19 51 -30 25 -11
45 -24 45 -30 0 -5 9 -13 21 -16 12 -4 36 -17 54 -29 51 -33 98 -60 125 -71
41 -16 140 -76 140 -84 0 -4 19 -15 43 -25 23 -11 49 -24 57 -31 8 -6 35 -20
60 -30 25 -10 50 -23 55 -29 18 -19 89 -64 136 -86 25 -11 57 -31 69 -43 23
-21 60 -42 178 -102 28 -14 52 -30 52 -35 0 -14 -81 -69 -119 -81 -20 -6 -40
-16 -46 -23 -19 -22 -90 -64 -128 -76 -21 -7 -41 -18 -44 -26 -3 -8 -11 -14
-17 -14 -20 0 -111 -47 -143 -74 -17 -14 -35 -26 -39 -26 -5 0 -32 -9 -59 -21
l-51 -21 -31 28 c-17 16 -46 54 -64 84 -18 30 -47 73 -65 95 -17 22 -41 58
-53 80 -56 101 -79 137 -108 162 -16 16 -33 40 -36 54 -4 14 -17 37 -30 50
-13 13 -27 35 -30 49 -5 22 -31 56 -82 111 -8 8 -21 31 -29 50 -8 20 -29 51
-46 69 -17 19 -43 54 -56 79 -57 104 -82 142 -122 188 -31 35 -42 57 -42 81
l0 32 38 -25 c20 -14 57 -35 82 -48z m-2565 -967 c4 -6 39 -26 78 -46 40 -19
79 -43 88 -54 9 -10 29 -22 45 -26 16 -4 48 -19 71 -34 22 -16 58 -34 79 -41
37 -13 46 -20 95 -62 11 -11 42 -26 67 -35 26 -8 53 -24 60 -34 7 -10 18 -18
24 -18 19 0 58 -42 58 -61 0 -10 -5 -21 -11 -25 -6 -3 -18 -21 -26 -38 -8 -17
-25 -51 -38 -76 -13 -25 -24 -54 -24 -64 -1 -11 -8 -28 -18 -38 -29 -32 -83
-138 -83 -163 0 -7 -6 -15 -14 -18 -8 -3 -17 -20 -21 -38 -7 -31 -16 -52 -37
-89 -4 -8 -13 -26 -20 -40 -7 -14 -17 -32 -24 -40 -6 -8 -19 -36 -29 -62 -10
-26 -24 -53 -31 -59 -8 -6 -14 -18 -14 -26 0 -27 -51 -135 -80 -168 -10 -11
-25 -45 -35 -75 -10 -30 -23 -62 -31 -70 -7 -8 -17 -26 -23 -40 -6 -14 -15
-32 -21 -40 -11 -17 -85 -176 -100 -215 -10 -25 -24 -32 -34 -16 -4 7 -9 1474
-6 1809 0 14 46 16 55 2z m3985 -52 c2 -543 0 -1562 -4 -1565 -11 -11 -48 43
-68 99 -11 35 -36 84 -54 109 -18 26 -40 68 -49 94 -8 26 -25 59 -35 73 -11
13 -20 29 -20 35 0 6 -6 18 -13 26 -8 9 -22 36 -31 61 -10 25 -23 51 -29 58
-6 8 -19 36 -28 63 -10 27 -27 61 -38 75 -12 15 -21 31 -21 37 0 6 -6 18 -14
26 -8 9 -21 39 -31 66 -9 28 -22 57 -29 65 -7 8 -22 38 -32 65 -10 28 -33 71
-51 97 -18 26 -33 53 -33 60 0 7 -11 35 -24 61 l-24 49 21 21 c26 26 85 67 96
67 13 0 76 33 83 44 3 5 21 18 40 27 18 9 56 29 83 43 28 14 57 30 65 35 8 5
35 17 60 27 25 10 50 23 55 29 6 7 20 15 33 19 12 4 22 12 22 17 0 10 35 27
58 28 6 1 12 -5 12 -11z m-1022 -454 c29 -8 28 -35 -2 -64 -14 -12 -28 -35
-31 -50 -3 -16 -12 -31 -20 -34 -7 -2 -23 -24 -34 -48 -11 -24 -25 -50 -30
-58 -6 -8 -18 -33 -28 -55 -9 -22 -32 -62 -51 -89 -19 -27 -42 -65 -51 -85
-21 -45 -52 -94 -67 -103 -6 -4 -21 -29 -33 -55 -12 -27 -33 -66 -46 -88 -13
-22 -24 -46 -25 -54 0 -7 -18 -35 -39 -63 -22 -27 -45 -66 -52 -86 -7 -20 -27
-55 -45 -77 -18 -22 -40 -60 -50 -85 -10 -25 -23 -48 -29 -52 -7 -4 -20 -29
-30 -55 -9 -26 -23 -53 -29 -58 -16 -15 -49 -64 -71 -109 -11 -22 -39 -69 -62
-104 -24 -36 -43 -70 -43 -77 0 -7 -11 -24 -25 -39 -14 -15 -25 -34 -25 -43 0
-17 -28 -53 -41 -53 -9 0 -45 58 -75 121 -12 26 -27 49 -32 53 -6 3 -16 23
-23 44 -11 33 -34 69 -73 112 -7 8 -21 36 -31 62 -9 26 -23 49 -30 52 -7 2
-16 18 -20 35 -4 17 -11 31 -16 31 -6 0 -19 20 -29 44 -11 24 -27 49 -35 56
-8 7 -15 19 -15 27 0 12 -20 53 -56 114 -6 11 -18 27 -27 37 -9 10 -26 39 -37
65 -12 26 -25 47 -30 47 -6 0 -10 7 -10 15 0 8 -8 22 -18 32 -10 10 -27 38
-36 62 -10 25 -23 50 -30 55 -7 6 -21 31 -31 56 -10 25 -33 63 -50 85 -29 37
-65 104 -65 120 0 4 -16 26 -35 49 -19 24 -35 48 -35 54 0 15 -32 74 -47 87
-7 5 -19 30 -28 54 -8 24 -24 51 -35 58 -25 17 -26 39 -2 52 18 11 1869 16
1910 5z m277 -176 c9 -24 22 -50 29 -58 6 -8 20 -40 31 -70 10 -30 33 -76 51
-101 18 -26 39 -67 48 -93 9 -25 31 -67 49 -94 19 -26 42 -70 51 -99 9 -28 24
-57 32 -63 7 -7 14 -18 14 -25 0 -16 33 -86 65 -140 31 -51 55 -104 55 -120 0
-7 8 -23 18 -36 11 -13 27 -46 38 -74 10 -27 32 -70 49 -95 16 -25 37 -66 46
-91 9 -25 33 -68 53 -97 20 -28 36 -56 36 -61 0 -5 7 -22 15 -37 20 -40 19
-53 -7 -59 -50 -11 -222 -26 -389 -35 -96 -5 -222 -14 -280 -20 -57 -6 -210
-15 -339 -20 -129 -5 -314 -13 -410 -18 -96 -5 -181 -6 -188 -4 -16 6 -8 49
13 72 8 9 24 37 35 63 12 26 24 47 28 47 8 0 33 41 66 105 11 22 39 68 62 103
24 34 45 76 49 92 3 16 13 34 21 41 8 6 23 30 34 53 37 74 53 101 65 108 7 4
20 29 30 55 10 26 24 55 31 63 7 8 22 25 34 38 11 12 28 41 37 65 9 23 25 53
35 66 10 13 18 29 18 36 0 15 60 107 76 118 7 4 15 20 19 36 3 15 22 52 41 82
19 30 37 65 41 79 3 14 10 30 17 35 19 17 52 68 71 110 23 51 54 85 76 85 11
0 23 -16 34 -42z m-2389 7 c3 -14 11 -29 18 -33 6 -4 20 -20 31 -37 18 -28 28
-46 91 -170 14 -27 33 -58 42 -68 18 -20 32 -44 63 -107 12 -25 27 -49 34 -55
7 -5 18 -27 24 -47 7 -20 20 -47 30 -60 10 -13 21 -33 25 -45 4 -13 12 -23 17
-23 5 0 18 -19 28 -43 10 -23 26 -48 35 -56 9 -7 16 -20 16 -27 0 -8 8 -22 18
-32 10 -10 26 -38 36 -63 10 -24 24 -51 31 -59 8 -9 24 -37 35 -63 12 -26 25
-47 30 -47 6 0 10 -7 10 -15 0 -8 8 -22 18 -32 10 -10 26 -39 36 -65 9 -25 24
-49 31 -52 8 -3 15 -12 15 -20 0 -8 8 -21 18 -28 10 -7 24 -32 32 -56 7 -23
20 -47 27 -54 14 -11 53 -89 53 -106 0 -4 13 -21 29 -36 32 -31 43 -57 31 -76
-6 -10 -30 -10 -111 -1 -57 7 -189 16 -294 21 -104 5 -226 14 -270 19 -44 6
-152 13 -240 16 -88 3 -221 10 -295 15 -74 5 -207 10 -295 11 -93 0 -165 5
-172 11 -17 14 -16 43 0 60 24 24 87 150 87 174 0 8 5 14 11 14 5 0 15 13 20
29 6 16 17 32 24 35 8 3 17 21 21 41 3 19 10 38 15 41 5 3 9 12 9 21 0 9 6 24
13 32 8 9 20 32 27 51 24 64 72 160 80 160 4 0 13 20 20 45 7 25 21 56 31 69
9 12 26 47 36 78 11 30 27 63 36 72 9 10 17 23 17 30 0 8 6 19 14 25 8 7 17
24 21 39 8 34 67 156 77 160 9 4 48 90 48 105 0 6 6 18 14 26 7 9 21 39 31 66
10 28 24 57 30 65 6 8 16 27 23 43 16 37 59 38 68 2z m2814 -1693 c0 -10 -12
-23 -27 -30 -59 -26 -125 -63 -170 -95 -27 -18 -66 -41 -88 -50 -22 -10 -47
-22 -55 -28 -8 -5 -34 -19 -57 -30 -23 -11 -45 -24 -48 -29 -4 -6 -21 -17 -38
-26 -18 -8 -59 -30 -92 -49 -33 -18 -76 -41 -95 -51 -51 -25 -130 -76 -130
-84 0 -3 -17 -12 -37 -19 -38 -13 -109 -56 -128 -77 -5 -7 -21 -14 -35 -17
-14 -4 -50 -22 -80 -42 -30 -19 -62 -35 -72 -35 -10 0 -26 -8 -36 -17 -34 -33
-77 -60 -124 -78 -27 -10 -48 -21 -48 -25 0 -15 -133 -89 -160 -90 -39 0 -40
13 -40 392 0 350 1 369 19 387 24 24 59 28 286 36 99 4 214 11 255 16 41 5
111 12 155 14 335 19 462 29 475 36 8 5 95 9 193 9 163 0 177 -1 177 -18z
m-3197 -31 c13 -5 114 -14 223 -20 109 -6 282 -16 384 -21 102 -6 250 -11 329
-11 80 -1 156 -5 169 -10 13 -5 85 -12 159 -16 97 -4 139 -10 149 -21 12 -12
14 -74 12 -397 -2 -211 -6 -386 -9 -389 -7 -7 -75 20 -83 33 -4 5 -28 17 -54
27 -26 10 -68 35 -94 55 -26 21 -65 43 -85 49 -21 7 -43 17 -48 24 -18 19 -68
51 -115 71 -25 11 -48 25 -53 31 -4 7 -30 20 -57 29 -28 9 -50 20 -50 25 0 5
-16 17 -35 27 -78 41 -191 106 -206 120 -9 7 -58 35 -110 62 -118 60 -169 91
-169 101 0 4 -21 15 -47 25 -25 10 -62 29 -82 42 -19 13 -46 26 -60 30 -14 3
-44 20 -66 38 -22 17 -57 42 -77 54 -38 22 -44 32 -31 44 9 10 78 8 106 -2z"/>
</g>
</svg>
